<svg id="Layer_1" data-name="Layer 1" xmlns="http://www.w3.org/2000/svg" xmlns:xlink="http://www.w3.org/1999/xlink" viewBox="0 0 93 82"><defs><style>.cls-1{opacity:0.23012;isolation:isolate;filter:url(#filter-1);}.cls-2,.cls-3{fill-rule:evenodd;}.cls-3{fill:#ffd100;stroke:#fff000;stroke-width:0.5px;}.cls-3,.cls-4{stroke-miterlimit:10;}.cls-4{fill:#fff;stroke:#fff;}</style><filter id="filter-1" x="-11.1%" y="-81.8%" width="122.2%" height="263.6%" name="filter-1"><feGaussianBlur stdDeviation="3" in="SourceGraphic"/></filter></defs><g id="Rectangle" class="cls-1"><polygon class="cls-2" points="6 63.716 87 63.716 70.151 71.547 46.076 74.716 20.487 71.547 6 63.716"/></g><g id="Group-3"><polygon id="Rectangle-2" data-name="Rectangle" class="cls-3" points="16 0.716 77 0.716 77 52.46 45.451 74.716 16 52.46 16 0.716"/></g><path class="cls-4" d="M34.33934,29.76778a22.29327,22.29327,0,0,0,.4726,4.35508,20.75783,20.75783,0,0,0,1.31666,4.4225,10.25479,10.25479,0,0,0,2.70081,3.30846,6.81107,6.81107,0,0,0,8.64259-.33757,11.62048,11.62048,0,0,0,2.76831-4.01743,28.56178,28.56178,0,0,0,1.72177-9.68913,23.4968,23.4968,0,0,0-1.85685-9.31779,9.99863,9.99863,0,0,0-2.76831-3.6123,6.9253,6.9253,0,0,0-4.4225-1.38418,5.625,5.625,0,0,0-4.28758,1.75551A11.43821,11.43821,0,0,0,35.926,19.53846a21.84189,21.84189,0,0,0-1.18159,5.30034,34.45892,34.45892,0,0,0-.40509,4.929ZM61.76805,12.2529a142.77487,142.77487,0,0,1-4.0462,16.8872q-.2682.83629-.76914,2.34079a6.89989,6.89989,0,0,0-.66883,2.17361,4.03643,4.03643,0,0,0,.40133,1.4379,17.89371,17.89371,0,0,0,1.03664,2.07329,6.6692,6.6692,0,0,0,1.4379,1.83915,2.22533,2.22533,0,0,0,3.67838-.13367,3.66589,3.66589,0,0,0,.63539-2.03986h1.41857s-.02252,1.83814-.0675,2.76068a11.81684,11.81684,0,0,1-.574,2.73456,5.35027,5.35027,0,0,1-1.21529,2.09309,3.33131,3.33131,0,0,1-2.22816.8778,4.05151,4.05151,0,0,1-2.63331-1.0128A6.05939,6.05939,0,0,1,56.45208,41.989a56.24831,56.24831,0,0,1-1.58669-6.16087h-.55433a13.82056,13.82056,0,0,1-4.3508,5.88838A12.28454,12.28454,0,0,1,41.84738,44.726,12.05016,12.05016,0,0,1,31.73908,39.721a17.76552,17.76552,0,0,1-3.63117-11.057,18.23611,18.23611,0,0,1,3.89286-11.515,12.74749,12.74749,0,0,1,10.50086-5.23408q5.10335.13119,7.524,3.82744a18.91578,18.91578,0,0,1,2.94415,8.04739h.51233L55.74225,12.2529Z"/></svg>